solid OpenSCAD_Model
  facet normal -1 0 0
    outer loop
      vertex 0 0 0
      vertex 0 40 50
      vertex 0 40 0
    endloop
  endfacet
  facet normal -1 -0 0
    outer loop
      vertex 0 40 50
      vertex 0 0 0
      vertex 0 0 50
    endloop
  endfacet
  facet normal -0 0 1
    outer loop
      vertex 0 40 50
      vertex 20 0 50
      vertex 20 40 50
    endloop
  endfacet
  facet normal 0 0 1
    outer loop
      vertex 20 0 50
      vertex 0 40 50
      vertex 0 0 50
    endloop
  endfacet
  facet normal 1 -0 0
    outer loop
      vertex 20 0 50
      vertex 20 40 45
      vertex 20 40 50
    endloop
  endfacet
  facet normal 1 0 0
    outer loop
      vertex 20 40 45
      vertex 20 0 50
      vertex 20 0 45
    endloop
  endfacet
  facet normal 0 1 0
    outer loop
      vertex 65 40 5
      vertex 65 40 0
      vertex 60 40 5
    endloop
  endfacet
  facet normal 0 1 0
    outer loop
      vertex 60 40 10
      vertex 60 40 5
      vertex 55 40 10
    endloop
  endfacet
  facet normal 0 1 0
    outer loop
      vertex 55 40 15
      vertex 55 40 10
      vertex 50 40 15
    endloop
  endfacet
  facet normal 0 1 0
    outer loop
      vertex 50 40 20
      vertex 50 40 15
      vertex 45 40 20
    endloop
  endfacet
  facet normal 0 1 0
    outer loop
      vertex 45 40 25
      vertex 45 40 20
      vertex 40 40 25
    endloop
  endfacet
  facet normal 0 1 0
    outer loop
      vertex 40 40 30
      vertex 40 40 25
      vertex 35 40 30
    endloop
  endfacet
  facet normal 0 1 0
    outer loop
      vertex 35 40 35
      vertex 35 40 30
      vertex 30 40 35
    endloop
  endfacet
  facet normal 0 1 0
    outer loop
      vertex 30 40 40
      vertex 30 40 35
      vertex 25 40 40
    endloop
  endfacet
  facet normal 0 1 0
    outer loop
      vertex 25 40 45
      vertex 25 40 40
      vertex 20 40 45
    endloop
  endfacet
  facet normal 0 1 -0
    outer loop
      vertex 20 40 45
      vertex 0 40 50
      vertex 20 40 50
    endloop
  endfacet
  facet normal 0 1 0
    outer loop
      vertex 0 40 0
      vertex 20 40 45
      vertex 25 40 40
    endloop
  endfacet
  facet normal 0 1 0
    outer loop
      vertex 0 40 0
      vertex 25 40 40
      vertex 30 40 35
    endloop
  endfacet
  facet normal 0 1 0
    outer loop
      vertex 0 40 0
      vertex 30 40 35
      vertex 35 40 30
    endloop
  endfacet
  facet normal 0 1 0
    outer loop
      vertex 0 40 0
      vertex 35 40 30
      vertex 40 40 25
    endloop
  endfacet
  facet normal 0 1 0
    outer loop
      vertex 0 40 0
      vertex 40 40 25
      vertex 45 40 20
    endloop
  endfacet
  facet normal 0 1 0
    outer loop
      vertex 0 40 0
      vertex 45 40 20
      vertex 50 40 15
    endloop
  endfacet
  facet normal 0 1 0
    outer loop
      vertex 0 40 0
      vertex 50 40 15
      vertex 55 40 10
    endloop
  endfacet
  facet normal 0 1 0
    outer loop
      vertex 0 40 0
      vertex 55 40 10
      vertex 60 40 5
    endloop
  endfacet
  facet normal 0 1 0
    outer loop
      vertex 0 40 0
      vertex 60 40 5
      vertex 65 40 0
    endloop
  endfacet
  facet normal 0 1 0
    outer loop
      vertex 20 40 45
      vertex 0 40 0
      vertex 0 40 50
    endloop
  endfacet
  facet normal 0 0 -1
    outer loop
      vertex 0 0 0
      vertex 65 40 0
      vertex 65 0 0
    endloop
  endfacet
  facet normal -0 0 -1
    outer loop
      vertex 65 40 0
      vertex 0 0 0
      vertex 0 40 0
    endloop
  endfacet
  facet normal 0 -1 0
    outer loop
      vertex 0 0 50
      vertex 20 0 45
      vertex 20 0 50
    endloop
  endfacet
  facet normal 0 -1 0
    outer loop
      vertex 20 0 45
      vertex 25 0 40
      vertex 25 0 45
    endloop
  endfacet
  facet normal 0 -1 0
    outer loop
      vertex 0 0 0
      vertex 20 0 45
      vertex 0 0 50
    endloop
  endfacet
  facet normal 0 -1 0
    outer loop
      vertex 25 0 40
      vertex 30 0 35
      vertex 30 0 40
    endloop
  endfacet
  facet normal 0 -1 -0
    outer loop
      vertex 20 0 45
      vertex 0 0 0
      vertex 25 0 40
    endloop
  endfacet
  facet normal 0 -1 0
    outer loop
      vertex 30 0 35
      vertex 35 0 30
      vertex 35 0 35
    endloop
  endfacet
  facet normal 0 -1 -0
    outer loop
      vertex 25 0 40
      vertex 0 0 0
      vertex 30 0 35
    endloop
  endfacet
  facet normal 0 -1 0
    outer loop
      vertex 35 0 30
      vertex 40 0 25
      vertex 40 0 30
    endloop
  endfacet
  facet normal 0 -1 -0
    outer loop
      vertex 30 0 35
      vertex 0 0 0
      vertex 35 0 30
    endloop
  endfacet
  facet normal 0 -1 0
    outer loop
      vertex 40 0 25
      vertex 45 0 20
      vertex 45 0 25
    endloop
  endfacet
  facet normal 0 -1 -0
    outer loop
      vertex 35 0 30
      vertex 0 0 0
      vertex 40 0 25
    endloop
  endfacet
  facet normal 0 -1 0
    outer loop
      vertex 45 0 20
      vertex 50 0 15
      vertex 50 0 20
    endloop
  endfacet
  facet normal 0 -1 -0
    outer loop
      vertex 40 0 25
      vertex 0 0 0
      vertex 45 0 20
    endloop
  endfacet
  facet normal 0 -1 0
    outer loop
      vertex 50 0 15
      vertex 55 0 10
      vertex 55 0 15
    endloop
  endfacet
  facet normal 0 -1 -0
    outer loop
      vertex 45 0 20
      vertex 0 0 0
      vertex 50 0 15
    endloop
  endfacet
  facet normal 0 -1 0
    outer loop
      vertex 55 0 10
      vertex 60 0 5
      vertex 60 0 10
    endloop
  endfacet
  facet normal 0 -1 -0
    outer loop
      vertex 50 0 15
      vertex 0 0 0
      vertex 55 0 10
    endloop
  endfacet
  facet normal 0 -1 -0
    outer loop
      vertex 55 0 10
      vertex 0 0 0
      vertex 60 0 5
    endloop
  endfacet
  facet normal 0 -1 0
    outer loop
      vertex 65 0 0
      vertex 60 0 5
      vertex 0 0 0
    endloop
  endfacet
  facet normal 0 -1 0
    outer loop
      vertex 60 0 5
      vertex 65 0 0
      vertex 65 0 5
    endloop
  endfacet
  facet normal -0 0 1
    outer loop
      vertex 20 40 45
      vertex 25 0 45
      vertex 25 40 45
    endloop
  endfacet
  facet normal 0 0 1
    outer loop
      vertex 25 0 45
      vertex 20 40 45
      vertex 20 0 45
    endloop
  endfacet
  facet normal 1 -0 0
    outer loop
      vertex 25 0 45
      vertex 25 40 40
      vertex 25 40 45
    endloop
  endfacet
  facet normal 1 0 0
    outer loop
      vertex 25 40 40
      vertex 25 0 45
      vertex 25 0 40
    endloop
  endfacet
  facet normal -0 0 1
    outer loop
      vertex 25 40 40
      vertex 30 0 40
      vertex 30 40 40
    endloop
  endfacet
  facet normal 0 0 1
    outer loop
      vertex 30 0 40
      vertex 25 40 40
      vertex 25 0 40
    endloop
  endfacet
  facet normal 1 -0 0
    outer loop
      vertex 30 0 40
      vertex 30 40 35
      vertex 30 40 40
    endloop
  endfacet
  facet normal 1 0 0
    outer loop
      vertex 30 40 35
      vertex 30 0 40
      vertex 30 0 35
    endloop
  endfacet
  facet normal -0 0 1
    outer loop
      vertex 30 40 35
      vertex 35 0 35
      vertex 35 40 35
    endloop
  endfacet
  facet normal 0 0 1
    outer loop
      vertex 35 0 35
      vertex 30 40 35
      vertex 30 0 35
    endloop
  endfacet
  facet normal 1 -0 0
    outer loop
      vertex 35 0 35
      vertex 35 40 30
      vertex 35 40 35
    endloop
  endfacet
  facet normal 1 0 0
    outer loop
      vertex 35 40 30
      vertex 35 0 35
      vertex 35 0 30
    endloop
  endfacet
  facet normal -0 0 1
    outer loop
      vertex 35 40 30
      vertex 40 0 30
      vertex 40 40 30
    endloop
  endfacet
  facet normal 0 0 1
    outer loop
      vertex 40 0 30
      vertex 35 40 30
      vertex 35 0 30
    endloop
  endfacet
  facet normal 1 -0 0
    outer loop
      vertex 40 0 30
      vertex 40 40 25
      vertex 40 40 30
    endloop
  endfacet
  facet normal 1 0 0
    outer loop
      vertex 40 40 25
      vertex 40 0 30
      vertex 40 0 25
    endloop
  endfacet
  facet normal -0 0 1
    outer loop
      vertex 40 40 25
      vertex 45 0 25
      vertex 45 40 25
    endloop
  endfacet
  facet normal 0 0 1
    outer loop
      vertex 45 0 25
      vertex 40 40 25
      vertex 40 0 25
    endloop
  endfacet
  facet normal 1 -0 0
    outer loop
      vertex 45 0 25
      vertex 45 40 20
      vertex 45 40 25
    endloop
  endfacet
  facet normal 1 0 0
    outer loop
      vertex 45 40 20
      vertex 45 0 25
      vertex 45 0 20
    endloop
  endfacet
  facet normal -0 0 1
    outer loop
      vertex 45 40 20
      vertex 50 0 20
      vertex 50 40 20
    endloop
  endfacet
  facet normal 0 0 1
    outer loop
      vertex 50 0 20
      vertex 45 40 20
      vertex 45 0 20
    endloop
  endfacet
  facet normal 1 -0 0
    outer loop
      vertex 50 0 20
      vertex 50 40 15
      vertex 50 40 20
    endloop
  endfacet
  facet normal 1 0 0
    outer loop
      vertex 50 40 15
      vertex 50 0 20
      vertex 50 0 15
    endloop
  endfacet
  facet normal -0 0 1
    outer loop
      vertex 50 40 15
      vertex 55 0 15
      vertex 55 40 15
    endloop
  endfacet
  facet normal 0 0 1
    outer loop
      vertex 55 0 15
      vertex 50 40 15
      vertex 50 0 15
    endloop
  endfacet
  facet normal 1 -0 0
    outer loop
      vertex 55 0 15
      vertex 55 40 10
      vertex 55 40 15
    endloop
  endfacet
  facet normal 1 0 0
    outer loop
      vertex 55 40 10
      vertex 55 0 15
      vertex 55 0 10
    endloop
  endfacet
  facet normal -0 0 1
    outer loop
      vertex 55 40 10
      vertex 60 0 10
      vertex 60 40 10
    endloop
  endfacet
  facet normal 0 0 1
    outer loop
      vertex 60 0 10
      vertex 55 40 10
      vertex 55 0 10
    endloop
  endfacet
  facet normal 1 -0 0
    outer loop
      vertex 60 0 10
      vertex 60 40 5
      vertex 60 40 10
    endloop
  endfacet
  facet normal 1 0 0
    outer loop
      vertex 60 40 5
      vertex 60 0 10
      vertex 60 0 5
    endloop
  endfacet
  facet normal -0 0 1
    outer loop
      vertex 60 40 5
      vertex 65 0 5
      vertex 65 40 5
    endloop
  endfacet
  facet normal 0 0 1
    outer loop
      vertex 65 0 5
      vertex 60 40 5
      vertex 60 0 5
    endloop
  endfacet
  facet normal 1 -0 0
    outer loop
      vertex 65 0 5
      vertex 65 40 0
      vertex 65 40 5
    endloop
  endfacet
  facet normal 1 0 0
    outer loop
      vertex 65 40 0
      vertex 65 0 5
      vertex 65 0 0
    endloop
  endfacet
endsolid OpenSCAD_Model
